<?xml version="1.0" encoding="utf-8"?>
<!-- Generator: Adobe Illustrator 21.0.0, SVG Export Plug-In . SVG Version: 6.00 Build 0)  -->
<svg version="1.1" id="Layer_1" xmlns="http://www.w3.org/2000/svg" xmlns:xlink="http://www.w3.org/1999/xlink" x="0px" y="0px"
	 viewBox="0 0 531.7 530.9" style="enable-background:new 0 0 531.7 530.9;" xml:space="preserve">
<style type="text/css">
	.st0{fill:#24BA5A;}
</style>
<g>
	<g>
		<path class="st0" d="M409.7,480.9c2-4.4,4.4-8.7,0.6-13.5c4.2-3.1,8.7-6.3,13-9.6c8.9-6.8,16.6-15.2,24.4-23.3
			c9.6-10.1,17.9-21,25.9-32.3c9-12.6,15.6-26.4,21.6-40.6c2.5-6.1,5-12.1,7.6-18.1c0.4-0.9,1.7-1.5,2.6-2.1
			c3.1-1.6,5.3-3.7,4.9-7.9c-1.5,0.1-2.7,0.2-4.8,0.4c2-7,4.3-13.5,5.6-20.2c1.6-8.7,2.6-17.4,3.2-26.2c0.7-10.5,1-21,1-31.5
			c0-4.8-1.3-9.6-1.7-14.4c-0.5-5.5-0.3-11.1-1.3-16.4c-1.9-9.8-4.3-19.5-6.7-29c-1.8-6.7-3.9-13.3-5.9-19.9
			c-0.2-0.6-0.8-1.5-0.6-1.8c3.8-5.4-2-7.1-3.7-10.5c-1.3-2.4-2.3-5-3.7-7.4c-1.2-2.2-2.7-4-3.7-6.2c-5.3-11.9-12.7-22.5-20.7-32.7
			c-6.4-8.1-13-15.9-19.8-23.8c-3.8-4.4-8.1-8.1-11.9-12.5c-2.3-2.7-4.1-6.1,0.8-10.1c-2.3,0.3-3.2,0.2-3.9,0.6
			c-7.2,4-10.9-2.3-15.5-5.5c-3.9-2.6-7.5-5.9-11.4-8.5c-5.3-3.5-10.7-7-16.1-10.1c-5.4-3-11.1-5.7-16.6-8.3
			c-5.5-2.5-11-5.4-16.7-7.3c-9.1-3.2-18.3-6.2-27.6-8.8c-16.9-4.9-34.3-7.3-51.8-7.7c-14.3-0.3-28.8,0.5-43,2
			c-9.8,1-19.4,3.8-28.9,6.3c-9.1,2.4-17.9,5.7-27,8.3c-13.6,3.9-25.6,11.2-37.7,18.1c-5.2,3-10,6.7-15,10.1
			c-5.1,3.4-10.1,7-15.3,10.4c-1.2,0.8-2.6,1-3.9,1.5c-0.9,0.3-2.2,0.7-2.4,1.2c-1.6,6.7-7.6,9.2-11.8,13.5
			c-6.1,6.2-11.4,12.8-17,19.5c-3.8,4.7-7.6,9.4-11.1,14.4c-5.7,8.5-11.3,17-16.4,25.8c-3.1,5.4-5.7,11.2-7.9,17
			c-4.1,11-7.8,22-11.6,33.1c-5.6,16.3-7.4,33.4-9,50.3c-1.5,16.1-1.1,32.5,1.7,48.5c2.1,12,3.6,24.3,6.7,36.1
			c2.4,9.6,6.7,18.8,10.4,28c2.9,7.2,6.1,14.4,9.7,21.3c3.6,6.8,7.7,13.4,12,19.9c5.7,8.5,11.4,17,17.8,25c3.7,4.8,8.7,8.7,13,12.9
			c1.1,1,2.3,1.9,3.2,3c6.2,8.7,15.4,14,23.6,20.2c5.8,4.4,11.2,9.4,17.3,13.2c7.3,4.6,15.1,8.4,22.9,12.1
			c7.6,3.7,15.5,7.2,23.3,10.6c3.1,1.4,6.6,2.2,9.8,3.1c16.7,5.1,33.7,8.8,51.1,10.7c12.5,1.4,25.3,1,37.9,0.6
			c9.4-0.3,18.8-2.3,28.3-3c15.4-1.2,29.6-6.4,44.1-11.1c2.1-0.7,3.9-2.7,6.2-0.1c0.2,0.3,2.2-0.3,2.4-0.9c2.2-5,7.8-5,11.7-7.4
			c6.3-4,13.2-7.1,20-10.4c1.1-0.5,3.6-0.2,4.3,0.7c3.1,3.9,6.9,4.3,11.3,3.4c-10.1,5.6-20,11.6-30.3,16.6
			c-9.2,4.4-18.8,8.1-28.6,11.2c-11.3,3.6-22.9,6.6-34.5,9c-8.9,1.9-18,2.9-27.1,3.7c-7.8,0.8-15.8,1.3-23.7,0.8
			c-10.3-0.6-20.5-1.7-30.8-2.8c-11.3-1.3-22.4-2.9-33.4-5.9c-7.3-2-14.5-5-21.8-7.1c-13.6-4-26.1-10.5-38.3-17.4
			c-7.8-4.4-15.3-9.7-22.5-15c-8.3-6.2-16.4-12.6-24.4-19.4c-7.2-6.2-14.7-12.4-20.9-19.5c-6.4-7-11.6-15.1-17-23
			c-6-9-11.9-18-17-27.5c-4.9-9.1-8.8-18.7-12.7-28.2c-3.4-8.4-6.8-16.8-9.2-25.5c-2.7-10.2-4.3-20.6-6.2-31
			c-1.3-7.1-2.5-14.3-2.8-21.4c-0.4-9.4-0.3-18.9,0.4-28.4c1.1-13.1,2.2-26.3,4.6-39.2c2.1-10.7,5.8-21,9.2-31.5
			c2.3-7.3,4.7-14.8,8.1-21.6c6.7-13.3,13.3-26.8,21.4-39.2c7.4-11.5,15.9-22.5,25.3-32.6c9.5-10.2,20-19.6,30.9-28.1
			c11.2-8.7,23.3-16.8,35.8-23.6c14.8-7.9,29.9-15.3,46.5-19.2c8.4-2,16.4-5.5,24.8-7.2c8.3-1.8,16.9-2.5,25.4-3.1
			c12.7-0.9,25.5-1.5,38.3-1.8c2.1,0,4.3,2.3,6.4,3.8c1.3,0.9,2.3,2,3.9,3.3c0.9-2.7,1.5-4.4,2.2-6.6c8.3,1.2,16.8,1.7,24.9,3.6
			c13.8,3.3,27.6,6.8,40.8,11.6c12.4,4.5,24.4,10.6,36.4,16.3c6.2,2.9,12.2,6.4,17.9,10.3c5.8,3.9,10.9,8.8,16.4,13.1
			c4.3,3.3,9.1,6.2,13.2,9.9c5.5,5,10.8,10.4,15.6,16c8.6,10.2,17.3,20.3,25.1,31.2c6.6,9.2,12.4,19,17.5,29
			c6.1,12.2,12,24.8,15.9,37.9c4.5,15,7.4,30.6,10,46.1c1.9,11.2,2.5,22.5,2.6,33.7c0.2,15.6-0.9,31.2-4.5,46.6
			c-2.3,9.7-3.5,19.8-6.6,29.2c-3.2,10.4-7.8,20.2-12.1,30.2c-3,6.9-6.1,14-9.9,20.5c-5.5,9.4-11.2,18.7-17.6,27.4
			c-6.9,9.4-14.3,18.7-22.4,27.1c-10.8,11.2-22.4,21.5-35.4,30.2C414.6,477.7,412.2,479.3,409.7,480.9z"/>
		<path class="st0" d="M375.1,126.9c-1.4,6.3-0.5,7.1,6.3,6.5c1-0.1,2.2,0.5,2.9,1.2c14.1,11.4,28.1,23.1,42.2,34.4
			c8.3,6.7,16.7,13.2,25.6,20.2c-8.7,4.4-17.1,8.4-25.2,12.7c-7.3,3.9-14.1,8.9-21.7,11.9c-6.8,2.7-12.2,7.2-18.1,11.2
			c-16.5,11.2-32.9,22.6-48.5,35c-15.3,12-29.7,25.1-44.3,38c-11.4,10.3-22.7,20.8-33.5,31.8c-2.2,2.2-4.7,4-6.9,6
			c-3.2,2.8-5.1,7.2-7.8,10.7c-6.7,8.3-13.8,16.3-20.5,24.7c-7.6,9.5-15,19.3-22.5,29c-1.5,2-2.9,3.8-4.9,6.3
			c-8.1-6.2-17.1-11.3-23.7-18.7c-3.3-3.7-7-4.8-10.6-7.1c-7.4-5-14.5-10.5-21.6-15.7c-1.4-1.1-2.7-2.2-4.5-3.5
			c0.8-0.5,1.6-0.7,2-1.3c0.8-1.1,1.3-2.3,2-3.5c-1.4-0.6-3.1-2.2-4-1.8c-3.9,1.9-5.9-0.3-8.2-2.7c-3.2-3.4-6.4-6.5-11.9-6.6
			c-2.8-0.1-5.9-3.2-8.4-5.4c-0.7-0.6-0.6-3.1,0.1-4.2c8.8-15.4,17.7-30.7,26.6-46c2.1-3.5,4.3-6.8,6.7-10.7c1,0.9,2.1,1.6,2.8,2.5
			c8.9,11.2,17.8,22.4,26.6,33.6c5.4,6.8,10.9,13.6,16.2,20.5c3.7,4.7,5.7,4.4,8.7-0.9c11.2-19.8,22.7-39.4,33.9-59.2
			c1.4-2.4,3.1-3.4,6.1-2.6c1.9,0.5,3.9,0.6,5.8,0.3c1.3-0.2,2.5-1.3,3.7-2c-1.1-1.3-1.9-3.1-3.2-3.6c-1.9-0.8-4-0.5-6.9-0.7
			c7.7-10.8,14.7-21.3,22.5-31.2c13.7-17.3,27.8-34.2,42.1-51.2c6.7-7.9,14.2-15.2,21.2-22.8c2.7-3,6-4.1,9.8-5.3
			c2.2-0.7,2.4-6.6,4.7-8.9c8.6-8.6,17.8-16.7,26.6-25.1c2.5-2.3,4.5-2.6,7,0C371.5,124.7,373.4,125.6,375.1,126.9z"/>
		<path class="st0" d="M490.3,304.9c1.8,0.3,3.4,0.1,4.5,0.8c1.1,0.7,2.3,2.3,2.2,3.3c-1.4,6.3-2.8,12.5-4.7,18.7
			c-2,6.4-5.2,12.3-6.7,18.7c-2.2,10.1-7.4,18.7-11.9,27.6c-2.8,5.8-6.6,11.2-9.9,16.7c-6.2,10.2-13.2,19.8-21.8,28.1
			c-4,3.8-6.7,9.1-10.8,12.8c-6.6,6.2-13.7,11.6-20.6,17.3c-4.8,3.9-9.6,7.8-14.6,11.4c-4.1,2.9-8.6,5.5-13,7.7
			c-7.2,3.8-14.6,7.4-22,10.8c-6.6,2.9-13.3,5.6-20.1,7.9c-5.7,2.1-11.5,3.8-17.4,5.1c-6,1.4-12,2.2-18.1,3c-6.9,1.1-14,2.2-21,2.8
			c-9.9,0.9-19.8,1.6-29.7,0c-11.7-1.9-23.8-2.1-35.4-4.2c-9.9-1.9-19.5-5.5-29.1-8.4c-5.3-1.6-10.6-3.1-15.6-5.3
			c-3.1-1.3-5.7-3.8-8.6-5.5c-1.9-1.1-4.2-1.4-6.1-2.3c-9.2-5.1-18.8-9.7-27.3-15.6c-8-5.6-15.2-12.6-22.5-19.3
			c-6-5.4-11.9-10.7-17.3-16.6c-6.1-6.7-11.8-13.8-17-21.2c-6.4-9-12.7-18.1-17.7-27.9c-5.5-10.9-9.6-22.5-13.8-33.9
			c-2.2-5.7-3.3-11.6-4.8-16.9c2.2-0.9,4.4-1.9,6.8-2.8c1,2.8,2.2,6,3,9.3c1.8,6.2,3.3,12.4,5.2,18.6c0.6,1.9,2,3.5,2.8,5.3
			c2.8,6,5.5,12,8.4,17.9c2.6,5.4,5.2,10.9,8.4,15.9c3.1,5,6.9,9.7,10.6,14.4c4.5,5.7,9.1,11.2,13.8,16.7c8.3,9.9,17.5,18.9,28,26.5
			c8,5.9,15.5,12.8,24.9,16.8c5.5,2.3,10.2,6.5,15.5,9.2c3.6,2,7.7,2.9,11.5,4.5c4.1,1.7,8,3.5,12.1,5.3c1.9,0.8,3.7,1.6,5.7,2.1
			c10.5,2.6,20.8,5.6,31.4,7.7c6.7,1.4,13.9,0.7,20.2,2.6c6.5,2.1,12.6,0.6,18.9,0.5c10-0.1,20-1,29.9-2.2
			c10.4-1.3,20.6-3.1,30.8-5.4c5.5-1.2,10.8-3.6,16-5.7c5.4-2.1,10.8-4,15.9-6.5c6.8-3.2,13.5-6.9,20.2-10.5
			c1.7-0.9,3.5-1.4,5.1-2.4c8-5.6,16.3-11,23.9-17.1c8.5-6.9,16.8-14.3,24.5-22.1c6-6.2,11.2-13.3,16.1-20.3
			c5.6-7.8,10.9-15.8,15.8-24.1c2.6-4.4,3.9-9.8,6.8-14c4.8-6.7,6.3-14.8,9.1-22.2c2.6-6.8,4.3-14,6.4-21
			C488.2,313.3,489.2,309,490.3,304.9z"/>
		<path class="st0" d="M73.7,130.5c5.9-7.2,11.4-14.8,17.7-21.7c5.7-6.2,11.8-11.8,18.1-17.4c7.4-6.7,14.8-13.4,22.8-19.3
			c7-5.1,14.9-9.2,22.6-13.4c7.8-4.2,15.8-8.1,24-11.8c5-2.3,10.1-4.4,15.3-6.1c5.1-1.7,10.4-2.7,15.6-3.9c4.7-1.1,9.4-2.1,14.2-2.7
			c11.1-1.6,22.1-3.3,33.2-4.2c7.9-0.7,15.9-0.6,24-0.1c7.2,0.4,14.4,1.4,21.5,2.6c9.4,1.7,18.8,3.9,28.1,6.1
			c3.7,0.9,7.3,2.2,10.8,3.2c0.6,3.1,1.2,6,1.7,8.2c-5.7-1.4-11.8-2.9-18.1-4.4c-7.5-1.8-15-3.9-22.6-5.2
			c-9.2-1.5-18.6-2.6-27.9-2.9c-8.3-0.3-16.6,1-24.8,1.1c-2.2,0-4.5-1.7-7.3-2.8c-3.2,5.9-10.1,3.5-15.6,5
			c-10.1,2.7-20.2,5.1-30.2,8.1c-7.5,2.3-15.1,5.1-22.3,8.4c-8.1,3.7-16,8-23.8,12.4c-6.7,3.8-13.5,7.9-19.9,12.4
			c-3.3,2.3-5.9,5.8-9.1,8.4c-1.9,1.6-4.3,2.4-5.9,3.2c-2.2,2.4-3.9,4.5-5.8,6.6c-3.2,3.5-6.7,6.9-9.9,10.7
			c-5.1,5.9-9.9,11.9-14.9,18c-1.3,1.6-2,4-4.4,0.6C80,128.7,76.1,130.1,73.7,130.5L73.7,130.5z"/>
		<path class="st0" d="M353.6,54.4c7.3-7.7,14.1-1.9,20.7,1.5c6.4,3.1,12.8,6.4,18.6,10.4c8.6,5.9,17.1,12.2,25.1,18.9
			c7,5.9,14,12.1,20.1,19c9.1,10.3,18.7,20.2,25.1,32.6c2.8,5.4,7,10.1,10,15.4c3.2,5.8,5.8,11.9,8.4,18.1c2.4,5.6,4.9,11.2,6.7,17
			c3.1,10.7,6.1,21.4,8.5,32.3c1.8,7.9,3.1,16.1,3.6,24.3c0.7,11,0.6,22.1,0.5,33.1c-0.1,5.7-1.1,11.2-1.6,16.6
			c-2.6,0.3-5,0.5-7.5,0.7c0.7-6.7,1.4-13.5,2.2-20.1c0.1-0.8,1.5-1.3,1.7-2.1c0.5-1.6,1.3-3.8,0.6-4.9c-3.7-5.4-2.5-11.5-3.2-17.4
			c-1.2-9.7-1.5-19.6-3.4-29.1c-2.2-11.2-5.3-22.2-8.9-33c-2.8-8.3-6.8-16.2-10.7-24.2c-3.2-6.7-6.8-13.4-10.6-20
			c-1.3-2.3-3.8-4-4.9-6.4c-2.9-6.6-6.9-12.1-12.5-16.7c-2.1-1.8-2.4-5.5-4.4-7.6c-2-2.2-4.8-3.6-7-5.6c-4.2-3.7-8.1-7.7-12.5-11.3
			c-7.2-6.1-14.6-12.1-22.2-17.7c-7.2-5.2-14.7-10.2-22.4-14.5C367.2,59.9,360.2,57.5,353.6,54.4z"/>
		<path class="st0" d="M73.7,130.5c-1.1,4.8,3.6,4.3,5,5.7c-6,11.3-12,22.4-17.7,33.6c-3.5,6.9-6.8,13.9-9.4,21.2
			c-2.5,7.2-4,14.9-6,22.3c-0.7,2.7-1.5,5.1-5,5.9c-3.9,0.9-5,8.7-1.5,12.7c2.6,3,2.6,5.4,1.9,9.3c-1.4,7.1-1.1,14.7-1,22
			c0.1,8.3,0.4,16.7,1.2,25c0.6,6.5,2.2,12.8,3.2,19.2c0.3,1.8,0.7,3.5,1.1,5.3c-2.9-1.2-5.4-2.1-8.5-3.3
			c-4.3-16.1-4.7-33.8-4.6-51.4c0.1-8.8,0.6-17.8,2.1-26.5c1.5-9.2,4.1-18.2,6.5-27.3c1.9-6.9,3.7-13.8,6.1-20.5
			c5.7-15.6,12.3-30.7,21.6-44.6C70.5,136.4,72.1,133.4,73.7,130.5L73.7,130.5z"/>
	</g>
</g>
</svg>
