<?xml version="1.0" encoding="utf-8"?>
<!-- Generator: Adobe Illustrator 21.0.0, SVG Export Plug-In . SVG Version: 6.00 Build 0)  -->
<svg version="1.1" id="Layer_1" xmlns="http://www.w3.org/2000/svg" xmlns:xlink="http://www.w3.org/1999/xlink" x="0px" y="0px"
	 viewBox="0 0 612 792" style="enable-background:new 0 0 612 792;" xml:space="preserve">
<style type="text/css">
	.st0{fill:#FFFFFF;}
</style>
<g>
	<g>
		<path class="st0" d="M-68,772c0-250,0-500,0-750c250,0,500,0,750,0c0,250,0,500,0,750C432,772,182,772-68,772z M453.2,618.6
			c2.5-1.6,5-3.2,7.5-4.9c13.3-8.9,25.1-19.5,36.2-30.9c8.3-8.6,15.8-18.1,22.9-27.7c6.6-8.9,12.4-18.4,18-28
			c3.9-6.7,7-13.9,10.1-21c4.4-10.2,9-20.4,12.4-30.9c3.1-9.7,4.3-20,6.7-29.9c3.7-15.7,4.8-31.6,4.6-47.6
			c-0.1-11.5-0.8-23.2-2.7-34.5c-2.6-15.8-5.5-31.8-10.2-47.1c-4-13.3-10.1-26.2-16.3-38.7c-5.1-10.3-11.2-20.3-17.9-29.7
			c-7.9-11.1-16.8-21.5-25.7-31.9c-4.9-5.8-10.3-11.3-16-16.4c-4.1-3.8-9-6.6-13.5-10.1c-5.6-4.4-10.9-9.3-16.8-13.4
			c-5.8-4-12-7.4-18.3-10.5c-12.2-5.9-24.4-12.1-37.2-16.7c-13.6-4.9-27.7-8.5-41.7-11.9c-8.4-2-17.1-2.5-25.5-3.7
			c-0.7,2.2-1.3,3.9-2.2,6.7c-1.5-1.3-2.7-2.5-4-3.4c-2.1-1.4-4.3-3.9-6.5-3.9c-13.1,0.2-26.1,0.8-39.2,1.8
			c-8.7,0.6-17.5,1.4-26,3.2c-8.6,1.8-16.8,5.4-25.4,7.4c-16.9,4-32.5,11.5-47.5,19.6c-12.8,6.9-25,15.2-36.6,24.1
			c-11.2,8.7-22,18.3-31.6,28.7c-9.5,10.3-18.3,21.5-25.9,33.3C76.8,263.6,70,277.3,63.2,291c-3.5,7-5.9,14.6-8.3,22.1
			c-3.4,10.6-7.3,21.2-9.4,32.2c-2.5,13.2-3.6,26.7-4.7,40.1c-0.8,9.6-0.8,19.3-0.4,29c0.3,7.3,1.6,14.7,2.9,21.9
			c1.8,10.6,3.5,21.3,6.3,31.7c2.4,8.9,5.9,17.5,9.4,26.1c4,9.8,8,19.5,13,28.8c5.2,9.7,11.3,19,17.4,28.1
			c5.4,8.1,10.9,16.3,17.4,23.5c6.5,7.3,14,13.6,21.4,19.9c8.1,6.9,16.3,13.5,24.9,19.8c7.4,5.5,15,10.8,23,15.3
			c12.5,7,25.3,13.7,39.2,17.8c7.5,2.2,14.7,5.2,22.3,7.3c11.2,3,22.5,4.7,34.1,6c10.5,1.2,21,2.3,31.5,2.9c8,0.5,16.2-0.1,24.2-0.8
			c9.3-0.9,18.6-1.9,27.7-3.8c11.9-2.5,23.7-5.6,35.3-9.2c10-3.2,19.8-7,29.2-11.5c10.6-5.1,20.7-11.3,31-17
			C451.5,620.3,452.3,619.5,453.2,618.6z"/>
		<path class="st0" d="M453.2,618.6c-0.8,0.8-1.7,1.7-2.5,2.5c-4.5,1-8.5,0.6-11.6-3.5c-0.7-0.9-3.2-1.2-4.4-0.7
			c-6.9,3.3-14,6.5-20.4,10.6c-4,2.5-9.6,2.5-12,7.6c-0.3,0.6-2.3,1.1-2.5,0.9c-2.2-2.7-4.2-0.5-6.3,0.1
			c-14.8,4.7-29.4,10.1-45.1,11.3c-9.6,0.7-19.2,2.8-28.9,3.1c-12.9,0.5-26,0.8-38.8-0.6c-17.7-1.9-35.1-5.8-52.2-10.9
			c-3.4-1-6.8-1.8-10-3.2c-8-3.4-16-7-23.8-10.8c-7.9-3.9-15.9-7.8-23.4-12.4c-6.3-3.9-11.8-9-17.7-13.5
			c-8.4-6.4-17.7-11.8-24.1-20.7c-0.9-1.2-2.2-2-3.3-3.1c-4.5-4.4-9.5-8.4-13.3-13.2c-6.5-8.2-12.4-16.9-18.2-25.6
			c-4.4-6.6-8.6-13.3-12.3-20.3c-3.7-7-6.9-14.4-9.9-21.8c-3.8-9.4-8.1-18.8-10.6-28.6c-3.1-12.1-4.7-24.6-6.8-36.9
			c-2.8-16.5-3.2-33.1-1.7-49.6c1.6-17.4,3.5-34.8,9.2-51.4c3.9-11.3,7.7-22.7,11.9-33.8c2.3-6,4.9-11.9,8.1-17.4
			c5.3-9,11-17.8,16.8-26.4c3.4-5.1,7.3-10,11.3-14.7c5.6-6.8,11.2-13.7,17.4-19.9c4.3-4.4,10.5-6.9,12.1-13.8
			c0.1-0.6,1.6-0.9,2.5-1.2c1.3-0.5,2.8-0.7,4-1.5c5.3-3.5,10.4-7.1,15.6-10.6c5.1-3.5,10-7.2,15.3-10.3
			c12.4-7.1,24.7-14.4,38.5-18.5c9.2-2.7,18.3-6,27.6-8.5c9.7-2.6,19.6-5.4,29.5-6.4c14.6-1.5,29.3-2.4,44-2c17.9,0.4,35.7,3,53,7.9
			c9.5,2.7,18.9,5.7,28.2,9c5.9,2.1,11.5,4.9,17.1,7.5c5.7,2.7,11.5,5.4,17,8.5c5.7,3.2,11.1,6.7,16.5,10.3c4,2.7,7.7,5.9,11.7,8.7
			c4.7,3.2,8.4,9.6,15.8,5.6c0.7-0.4,1.6-0.3,4-0.6c-5,4.1-3.2,7.5-0.8,10.3c3.8,4.5,8.3,8.4,12.2,12.8c6.9,7.9,13.7,16,20.2,24.3
			c8.1,10.4,15.7,21.3,21.2,33.4c1,2.2,2.6,4.2,3.8,6.3c1.4,2.5,2.5,5.1,3.8,7.6c1.8,3.4,7.7,5.2,3.8,10.7c-0.2,0.3,0.4,1.2,0.6,1.8
			c2,6.8,4.2,13.5,6,20.3c2.5,9.8,5,19.7,6.9,29.7c1,5.5,0.8,11.2,1.3,16.8c0.5,4.9,1.7,9.8,1.7,14.7c0,10.7-0.2,21.5-1,32.2
			c-0.6,9-1.7,18-3.3,26.8c-1.3,6.9-3.7,13.6-5.7,20.7c2.1-0.2,3.4-0.3,4.9-0.4c0.4,4.3-1.8,6.5-5,8.1c-1,0.5-2.3,1.1-2.7,2.1
			c-2.7,6.1-5.2,12.4-7.8,18.5c-6.1,14.5-12.8,28.6-22.1,41.5c-8.2,11.5-16.7,22.8-26.5,33c-7.9,8.3-15.8,16.7-24.9,23.8
			c-4.4,3.4-9,6.6-13.3,9.8C457.6,609.7,455.2,614.2,453.2,618.6z M109.7,260.4c2.4-0.4,6.4-1.9,7.1-1c2.5,3.5,3.2,1,4.5-0.6
			c5-6.1,10-12.3,15.2-18.4c3.2-3.8,6.7-7.2,10.1-10.9c1.9-2.1,3.7-4.2,5.9-6.7c1.5-0.8,4-1.7,6-3.3c3.3-2.7,5.9-6.2,9.3-8.6
			c6.6-4.5,13.4-8.8,20.3-12.7c8-4.5,16-8.9,24.3-12.7c7.4-3.4,15-6.2,22.8-8.6c10.2-3.1,20.6-5.6,30.9-8.3
			c5.7-1.5,12.7,0.9,15.9-5.1c2.9,1.2,5.2,2.9,7.5,2.9c8.5-0.1,17-1.4,25.4-1.1c9.5,0.3,19.1,1.5,28.5,3c7.8,1.2,15.4,3.4,23.1,5.3
			c6.4,1.5,12.7,3.1,18.5,4.5c-0.4-2.3-1-5.2-1.7-8.4c-3.5-1.1-7.2-2.4-11-3.3c-9.5-2.2-19.1-4.4-28.7-6.2c-7.3-1.3-14.6-2.3-22-2.7
			c-8.1-0.4-16.4-0.6-24.5,0.1c-11.4,1-22.6,2.7-33.9,4.3c-4.9,0.7-9.7,1.8-14.5,2.8c-5.4,1.2-10.8,2.3-16,4
			c-5.3,1.7-10.5,3.8-15.6,6.2c-8.2,3.8-16.4,7.8-24.5,12.1c-7.9,4.2-15.9,8.4-23.1,13.7c-8.2,5.9-15.7,12.9-23.3,19.7
			c-6.4,5.7-12.8,11.5-18.5,17.8C121.4,245.3,115.7,253,109.7,260.4c-1.7,3-3.3,6-5.1,8.8c-9.6,14.1-16.4,29.6-22.1,45.6
			c-2.5,6.9-4.4,13.9-6.2,21c-2.4,9.2-5.1,18.5-6.6,27.9c-1.4,8.9-2,18-2.1,27.1c-0.1,18.1,0.2,36.1,4.7,52.6
			c3.2,1.3,5.7,2.2,8.7,3.4c-0.4-1.8-0.8-3.6-1.1-5.4c-1.2-6.5-2.7-13-3.3-19.6c-0.8-8.5-1.1-17-1.2-25.6c-0.1-7.5-0.3-15.2,1-22.5
			c0.8-4,0.8-6.4-1.9-9.5c-3.6-4.1-2.6-12.2,1.5-13c3.7-0.8,4.4-3.2,5.1-6c2-7.6,3.5-15.4,6.1-22.8c2.6-7.4,6-14.6,9.6-21.7
			c5.8-11.5,12-22.8,18.1-34.4C113.4,264.8,108.6,265.2,109.7,260.4z M417.8,256.7c-1.7-1.3-3.6-2.4-5.1-3.9c-2.5-2.7-4.6-2.5-7.2,0
			c-9,8.6-18.4,16.9-27.2,25.7c-2.4,2.4-2.5,8.4-4.8,9.1c-3.9,1.2-7.2,2.4-10,5.4c-7.2,7.8-14.9,15.2-21.7,23.3
			c-14.6,17.2-29,34.6-43,52.3c-8,10.1-15.1,20.9-23,31.9c2.9,0.2,5.2,0,7.1,0.7c1.4,0.6,2.2,2.4,3.3,3.7c-1.3,0.7-2.5,1.8-3.8,2
			c-1.9,0.3-4.1,0.2-5.9-0.3c-3-0.8-4.8,0.2-6.2,2.7c-11.6,20.2-23.2,40.3-34.7,60.5c-3.1,5.5-5.1,5.8-8.9,0.9c-5.5-7-11-14-16.6-21
			c-9.1-11.5-18.1-22.9-27.2-34.4c-0.8-1-1.9-1.7-2.9-2.6c-2.4,3.8-4.7,7.3-6.8,10.9c-9.1,15.6-18.2,31.3-27.2,47
			c-0.7,1.2-0.8,3.7-0.1,4.3c2.6,2.2,5.7,5.4,8.6,5.5c5.7,0.1,8.8,3.3,12.2,6.7c2.4,2.5,4.5,4.7,8.4,2.8c0.9-0.4,2.7,1.1,4.1,1.8
			c-0.6,1.2-1.2,2.5-2,3.6c-0.4,0.6-1.2,0.8-2,1.3c1.8,1.4,3.2,2.5,4.6,3.6c7.3,5.4,14.5,11.1,22.1,16.1c3.6,2.4,7.4,3.4,10.8,7.3
			c6.7,7.5,15.8,12.7,24.2,19.1c2-2.5,3.5-4.5,5-6.4c7.7-9.9,15.2-19.8,23-29.6c6.8-8.5,14.1-16.8,21-25.3c2.8-3.5,4.7-8,8-10.9
			c2.3-2.1,4.8-3.8,7.1-6.1c11-11.2,22.5-22,34.2-32.5c14.8-13.3,29.7-26.6,45.3-38.9c16-12.6,32.8-24.3,49.6-35.8
			c5.9-4,11.5-8.7,18.5-11.5c7.8-3.1,14.8-8.3,22.2-12.2c8.3-4.4,16.9-8.5,25.8-13c-9.1-7.2-17.7-13.8-26.2-20.7
			c-14.4-11.7-28.7-23.5-43.1-35.2c-0.8-0.7-2.1-1.3-3-1.2C417.3,264,416.3,263.1,417.8,256.7z M535.6,438.7
			c-1.1,4.2-2.1,8.5-3.3,12.8c-2,7.2-3.8,14.5-6.5,21.5c-2.9,7.6-4.4,15.8-9.3,22.7c-3,4.3-4.3,9.7-7,14.3
			c-5.1,8.4-10.5,16.6-16.2,24.6c-5.1,7.2-10.4,14.5-16.5,20.8c-7.8,8.1-16.3,15.6-25,22.6c-7.8,6.3-16.2,11.7-24.4,17.5
			c-1.5,1.1-3.5,1.6-5.2,2.5c-6.9,3.6-13.7,7.4-20.7,10.7c-5.3,2.5-10.8,4.5-16.3,6.6c-5.4,2.1-10.8,4.5-16.4,5.8
			c-10.4,2.3-20.9,4.2-31.5,5.5c-10.1,1.3-20.4,2.1-30.6,2.3c-6.4,0.1-12.6,1.6-19.3-0.5c-6.5-2.1-13.9-1.3-20.7-2.7
			c-10.8-2.2-21.5-5.2-32.1-7.9c-2-0.5-3.9-1.3-5.8-2.1c-4.1-1.8-8.2-3.7-12.4-5.4c-3.9-1.6-8.1-2.7-11.8-4.6
			c-5.4-2.9-10.2-7.1-15.8-9.4c-9.7-4.1-17.2-11.2-25.5-17.2c-10.6-7.7-20.1-16.9-28.6-27.1c-4.7-5.7-9.5-11.3-14.1-17.1
			c-3.8-4.8-7.6-9.5-10.8-14.7c-3.2-5.2-5.9-10.8-8.6-16.3c-3-6.1-5.7-12.2-8.6-18.3c-0.9-1.8-2.3-3.5-2.9-5.4
			c-1.9-6.3-3.5-12.7-5.3-19c-1-3.3-2.2-6.6-3.1-9.5c-2.5,1.1-4.7,2-7,2.9c1.5,5.4,2.7,11.6,4.9,17.3c4.4,11.7,8.5,23.6,14.1,34.7
			c5,10,11.6,19.3,18.1,28.5c5.3,7.6,11.2,14.8,17.4,21.7c5.5,6,11.6,11.5,17.7,17c7.5,6.8,14.7,13.9,23,19.7
			c8.8,6.1,18.5,10.8,27.9,16c1.9,1.1,4.3,1.3,6.2,2.4c3,1.7,5.6,4.2,8.8,5.6c5.2,2.2,10.6,3.7,16,5.4c9.9,3,19.7,6.7,29.8,8.6
			c11.9,2.2,24.2,2.4,36.2,4.3c10.2,1.6,20.3,0.9,30.4,0c7.2-0.6,14.3-1.8,21.5-2.9c6.2-0.9,12.4-1.7,18.5-3.1
			c6-1.4,12-3.2,17.8-5.2c6.9-2.4,13.8-5.1,20.5-8.1c7.6-3.4,15.1-7.2,22.5-11c4.6-2.4,9.1-5,13.3-7.9c5.2-3.6,10-7.7,14.9-11.7
			c7.1-5.8,14.4-11.4,21.1-17.7c4.1-3.9,6.9-9.2,11-13.1c8.8-8.5,16-18.2,22.3-28.7c3.4-5.7,7.2-11.2,10.1-17.1
			c4.6-9.2,9.9-17.9,12.2-28.2c1.4-6.6,4.7-12.7,6.8-19.1c2-6.3,3.4-12.7,4.8-19.1c0.2-1-1.1-2.7-2.2-3.4
			C539.1,438.8,537.4,439,535.6,438.7z M395.8,182.6c6.8,3,13.9,5.6,20.4,9.3c7.9,4.4,15.6,9.5,22.9,14.8
			c7.8,5.7,15.3,11.9,22.7,18.1c4.4,3.7,8.4,7.8,12.8,11.6c2.3,2,5.3,3.4,7.2,5.7c1.9,2.2,2.3,6,4.5,7.8c5.7,4.8,9.8,10.4,12.8,17.1
			c1.1,2.4,3.7,4.2,5,6.5c3.8,6.7,7.4,13.5,10.8,20.4c3.9,8.1,8.1,16.2,10.9,24.7c3.7,11,6.8,22.3,9.1,33.7
			c1.9,9.8,2.3,19.9,3.5,29.8c0.7,6-0.5,12.3,3.3,17.8c0.7,1-0.2,3.3-0.6,5c-0.2,0.8-1.6,1.4-1.7,2.1c-0.8,6.8-1.5,13.7-2.2,20.6
			c2.6-0.3,5-0.5,7.7-0.7c0.5-5.5,1.5-11.2,1.6-17c0.2-11.3,0.2-22.6-0.5-33.8c-0.5-8.3-1.9-16.6-3.7-24.8
			c-2.5-11.1-5.5-22.1-8.7-33c-1.8-6-4.3-11.7-6.8-17.4c-2.7-6.2-5.4-12.5-8.6-18.5c-3-5.4-7.3-10.2-10.2-15.7
			c-6.7-12.6-16.5-22.8-25.7-33.3c-6.2-7-13.3-13.4-20.5-19.4c-8.2-6.9-16.8-13.3-25.7-19.3c-6-4.1-12.5-7.4-19-10.6
			C410.2,180.8,403.4,174.8,395.8,182.6z"/>
		<path d="M453.2,618.6c2-4.5,4.5-8.9,0.6-13.8c4.3-3.2,8.9-6.4,13.3-9.8c9.1-7,17-15.5,24.9-23.8c9.8-10.3,18.3-21.5,26.5-33
			c9.2-12.9,15.9-27,22.1-41.5c2.6-6.2,5.1-12.4,7.8-18.5c0.4-0.9,1.7-1.5,2.7-2.1c3.2-1.6,5.4-3.8,5-8.1c-1.5,0.1-2.8,0.2-4.9,0.4
			c2-7.2,4.4-13.8,5.7-20.7c1.6-8.9,2.7-17.8,3.3-26.8c0.7-10.7,1-21.5,1-32.2c0-4.9-1.3-9.8-1.7-14.7c-0.5-5.6-0.3-11.3-1.3-16.8
			c-1.9-10-4.4-19.9-6.9-29.7c-1.8-6.8-4-13.6-6-20.3c-0.2-0.6-0.8-1.5-0.6-1.8c3.9-5.5-2-7.3-3.8-10.7c-1.3-2.5-2.4-5.1-3.8-7.6
			c-1.2-2.2-2.8-4.1-3.8-6.3c-5.4-12.2-13-23-21.2-33.4c-6.5-8.3-13.3-16.3-20.2-24.3c-3.9-4.5-8.3-8.3-12.2-12.8
			c-2.4-2.8-4.2-6.2,0.8-10.3c-2.4,0.3-3.3,0.2-4,0.6c-7.4,4.1-11.1-2.4-15.8-5.6c-4-2.7-7.7-6-11.7-8.7
			c-5.4-3.6-10.9-7.2-16.5-10.3c-5.5-3.1-11.3-5.8-17-8.5c-5.6-2.6-11.2-5.5-17.1-7.5c-9.3-3.3-18.7-6.3-28.2-9
			c-17.3-5-35.1-7.5-53-7.9c-14.6-0.3-29.4,0.5-44,2c-10,1-19.8,3.9-29.5,6.4c-9.3,2.5-18.3,5.8-27.6,8.5
			c-13.9,4-26.2,11.4-38.5,18.5c-5.3,3.1-10.2,6.8-15.3,10.3c-5.2,3.5-10.3,7.2-15.6,10.6c-1.2,0.8-2.7,1-4,1.5
			c-0.9,0.3-2.3,0.7-2.5,1.2c-1.6,6.8-7.8,9.4-12.1,13.8c-6.2,6.3-11.7,13.1-17.4,19.9c-3.9,4.8-7.8,9.6-11.3,14.7
			c-5.8,8.7-11.6,17.4-16.8,26.4c-3.2,5.5-5.8,11.5-8.1,17.4c-4.2,11.2-8,22.5-11.9,33.8c-5.7,16.7-7.6,34.1-9.2,51.4
			c-1.5,16.5-1.1,33.2,1.7,49.6c2.1,12.3,3.7,24.8,6.8,36.9c2.5,9.8,6.8,19.2,10.6,28.6c3,7.4,6.2,14.7,9.9,21.8
			c3.7,7,7.9,13.7,12.3,20.3c5.8,8.7,11.7,17.4,18.2,25.6c3.8,4.9,8.9,8.9,13.3,13.2c1.1,1,2.4,1.9,3.3,3.1
			c6.3,8.9,15.7,14.3,24.1,20.7c5.9,4.5,11.5,9.6,17.7,13.5c7.5,4.7,15.4,8.6,23.4,12.4c7.8,3.8,15.8,7.4,23.8,10.8
			c3.2,1.4,6.7,2.2,10,3.2c17.1,5.2,34.5,9,52.2,10.9c12.8,1.4,25.9,1,38.8,0.6c9.6-0.3,19.2-2.4,28.9-3.1
			c15.7-1.2,30.3-6.5,45.1-11.3c2.1-0.7,4-2.8,6.3-0.1c0.2,0.3,2.3-0.3,2.5-0.9c2.3-5.1,8-5.1,12-7.6c6.4-4.1,13.5-7.3,20.4-10.6
			c1.1-0.5,3.7-0.2,4.4,0.7c3.2,4,7.1,4.4,11.6,3.5c-10.3,5.7-20.4,11.9-31,17c-9.4,4.5-19.2,8.3-29.2,11.5
			c-11.6,3.7-23.4,6.7-35.3,9.2c-9.1,1.9-18.4,3-27.7,3.8c-8,0.8-16.2,1.3-24.2,0.8c-10.5-0.6-21-1.7-31.5-2.9
			c-11.6-1.3-22.9-3-34.1-6c-7.5-2-14.8-5.1-22.3-7.3c-13.9-4.1-26.7-10.7-39.2-17.8c-8-4.5-15.6-9.9-23-15.3
			c-8.5-6.3-16.8-12.9-24.9-19.8c-7.4-6.3-15-12.7-21.4-19.9c-6.5-7.2-11.9-15.4-17.4-23.5c-6.1-9.2-12.2-18.4-17.4-28.1
			c-5-9.3-9-19.1-13-28.8c-3.5-8.6-7-17.2-9.4-26.1c-2.8-10.4-4.4-21.1-6.3-31.7c-1.3-7.3-2.6-14.6-2.9-21.9
			c-0.4-9.6-0.3-19.3,0.4-29c1.1-13.4,2.2-26.9,4.7-40.1c2.1-10.9,5.9-21.5,9.4-32.2c2.4-7.5,4.8-15.1,8.3-22.1
			c6.8-13.6,13.6-27.4,21.9-40.1c7.6-11.8,16.3-23,25.9-33.3c9.7-10.4,20.4-20,31.6-28.7c11.5-8.9,23.8-17.2,36.6-24.1
			c15.1-8.1,30.6-15.6,47.5-19.6c8.6-2,16.8-5.6,25.4-7.4c8.5-1.8,17.3-2.6,26-3.2c13-0.9,26.1-1.5,39.2-1.8c2.1,0,4.4,2.4,6.5,3.9
			c1.3,0.9,2.4,2,4,3.4c0.9-2.8,1.5-4.5,2.2-6.7c8.5,1.2,17.2,1.7,25.5,3.7c14.1,3.4,28.2,7,41.7,11.9c12.7,4.6,24.9,10.8,37.2,16.7
			c6.3,3,12.5,6.5,18.3,10.5c5.9,4,11.1,9,16.8,13.4c4.4,3.4,9.3,6.3,13.5,10.1c5.6,5.1,11,10.6,16,16.4
			c8.8,10.4,17.7,20.8,25.7,31.9c6.7,9.4,12.7,19.4,17.9,29.7c6.2,12.5,12.3,25.4,16.3,38.7c4.6,15.3,7.6,31.3,10.2,47.1
			c1.9,11.4,2.6,23,2.7,34.5c0.2,16-0.9,31.9-4.6,47.6c-2.4,9.9-3.6,20.2-6.7,29.9c-3.3,10.6-8,20.7-12.4,30.9
			c-3.1,7.1-6.2,14.3-10.1,21c-5.6,9.6-11.5,19.1-18,28c-7.1,9.6-14.6,19.1-22.9,27.7c-11,11.4-22.9,22-36.2,30.9
			C458.2,615.4,455.7,617,453.2,618.6z"/>
		<path d="M417.8,256.7c-1.4,6.4-0.5,7.3,6.4,6.6c1-0.1,2.2,0.5,3,1.2c14.4,11.7,28.7,23.6,43.1,35.2c8.5,6.9,17.1,13.5,26.2,20.7
			c-8.9,4.5-17.5,8.6-25.8,13c-7.5,4-14.4,9.1-22.2,12.2c-7,2.8-12.5,7.4-18.5,11.5c-16.9,11.5-33.6,23.1-49.6,35.8
			c-15.6,12.3-30.4,25.7-45.3,38.9c-11.7,10.5-23.2,21.3-34.2,32.5c-2.3,2.3-4.8,4.1-7.1,6.1c-3.3,2.9-5.2,7.4-8,10.9
			c-6.9,8.5-14.1,16.7-21,25.3c-7.8,9.7-15.3,19.7-23,29.6c-1.5,2-3,3.9-5,6.4c-8.3-6.3-17.5-11.6-24.2-19.1
			c-3.4-3.8-7.2-4.9-10.8-7.3c-7.6-5.1-14.8-10.7-22.1-16.1c-1.4-1.1-2.8-2.2-4.6-3.6c0.8-0.5,1.6-0.7,2-1.3c0.8-1.1,1.3-2.4,2-3.6
			c-1.4-0.6-3.2-2.2-4.1-1.8c-4,1.9-6-0.3-8.4-2.8c-3.3-3.5-6.5-6.6-12.2-6.7c-2.9-0.1-6-3.3-8.6-5.5c-0.7-0.6-0.6-3.2,0.1-4.3
			c9-15.7,18.1-31.4,27.2-47c2.1-3.6,4.4-7,6.8-10.9c1,0.9,2.1,1.6,2.9,2.6c9.1,11.4,18.2,22.9,27.2,34.4c5.5,7,11.1,13.9,16.6,21
			c3.8,4.8,5.8,4.5,8.9-0.9c11.5-20.2,23.2-40.3,34.7-60.5c1.4-2.5,3.2-3.5,6.2-2.7c1.9,0.5,4,0.6,5.9,0.3c1.3-0.2,2.6-1.3,3.8-2
			c-1.1-1.3-1.9-3.2-3.3-3.7c-1.9-0.8-4.1-0.5-7.1-0.7c7.9-11,15-21.8,23-31.9c14-17.7,28.4-35,43-52.3c6.9-8.1,14.5-15.5,21.7-23.3
			c2.8-3.1,6.1-4.2,10-5.4c2.3-0.7,2.5-6.7,4.8-9.1c8.8-8.8,18.2-17.1,27.2-25.7c2.6-2.4,4.6-2.7,7.2,0
			C414.1,254.4,416.1,255.4,417.8,256.7z"/>
		<path d="M535.6,438.7c1.8,0.3,3.5,0.1,4.6,0.8c1.1,0.7,2.4,2.4,2.2,3.4c-1.4,6.4-2.9,12.8-4.8,19.1c-2,6.5-5.3,12.6-6.8,19.1
			c-2.2,10.3-7.6,19.1-12.2,28.2c-2.9,5.9-6.7,11.4-10.1,17.1c-6.3,10.4-13.5,20.2-22.3,28.7c-4.1,3.9-6.8,9.3-11,13.1
			c-6.7,6.3-14,11.9-21.1,17.7c-4.9,4-9.8,8-14.9,11.7c-4.2,3-8.8,5.6-13.3,7.9c-7.4,3.9-14.9,7.6-22.5,11c-6.7,3-13.6,5.7-20.5,8.1
			c-5.8,2.1-11.8,3.9-17.8,5.2c-6.1,1.4-12.3,2.2-18.5,3.1c-7.1,1.1-14.3,2.3-21.5,2.9c-10.1,0.9-20.2,1.6-30.4,0
			c-12-1.9-24.3-2.1-36.2-4.3c-10.1-1.9-19.9-5.6-29.8-8.6c-5.4-1.6-10.8-3.2-16-5.4c-3.2-1.3-5.8-3.9-8.8-5.6
			c-1.9-1.1-4.3-1.4-6.2-2.4c-9.4-5.2-19.2-9.9-27.9-16c-8.2-5.7-15.5-12.9-23-19.7c-6.1-5.5-12.2-10.9-17.7-17
			c-6.2-6.9-12.1-14.1-17.4-21.7c-6.5-9.2-13-18.5-18.1-28.5c-5.6-11.1-9.8-23-14.1-34.7c-2.2-5.8-3.4-11.9-4.9-17.3
			c2.3-0.9,4.5-1.9,7-2.9c1,2.9,2.2,6.1,3.1,9.5c1.8,6.3,3.4,12.7,5.3,19c0.6,1.9,2,3.6,2.9,5.4c2.9,6.1,5.6,12.3,8.6,18.3
			c2.7,5.5,5.3,11.1,8.6,16.3c3.2,5.1,7.1,9.9,10.8,14.7c4.6,5.8,9.3,11.5,14.1,17.1c8.5,10.1,17.9,19.3,28.6,27.1
			c8.2,6,15.8,13.1,25.5,17.2c5.6,2.4,10.4,6.6,15.8,9.4c3.7,2,7.9,3,11.8,4.6c4.2,1.7,8.2,3.6,12.4,5.4c1.9,0.8,3.8,1.6,5.8,2.1
			c10.7,2.7,21.3,5.7,32.1,7.9c6.8,1.4,14.2,0.7,20.7,2.7c6.6,2.1,12.9,0.6,19.3,0.5c10.2-0.1,20.4-1,30.6-2.3
			c10.6-1.3,21.1-3.2,31.5-5.5c5.6-1.2,11-3.7,16.4-5.8c5.5-2.1,11-4.1,16.3-6.6c7-3.3,13.8-7.1,20.7-10.7c1.7-0.9,3.6-1.4,5.2-2.5
			c8.2-5.7,16.7-11.2,24.4-17.5c8.7-7.1,17.2-14.6,25-22.6c6.1-6.3,11.4-13.6,16.5-20.8c5.7-8,11.1-16.2,16.2-24.6
			c2.7-4.5,4-10,7-14.3c4.9-6.9,6.4-15.1,9.3-22.7c2.7-7,4.4-14.3,6.5-21.5C533.5,447.3,534.5,442.9,535.6,438.7z"/>
		<path d="M109.7,260.4c6-7.4,11.7-15.1,18.1-22.2c5.8-6.3,12.1-12.1,18.5-17.8c7.6-6.8,15.1-13.7,23.3-19.7
			c7.2-5.2,15.2-9.4,23.1-13.7c8-4.3,16.2-8.3,24.5-12.1c5.1-2.4,10.3-4.5,15.6-6.2c5.2-1.7,10.6-2.8,16-4c4.8-1.1,9.6-2.1,14.5-2.8
			c11.3-1.6,22.6-3.4,33.9-4.3c8.1-0.7,16.3-0.6,24.5-0.1c7.4,0.4,14.7,1.4,22,2.7c9.6,1.7,19.2,4,28.7,6.2c3.8,0.9,7.5,2.2,11,3.3
			c0.6,3.2,1.2,6.1,1.7,8.4c-5.8-1.4-12.1-3-18.5-4.5c-7.7-1.8-15.3-4-23.1-5.3c-9.4-1.5-19-2.7-28.5-3c-8.5-0.3-17,1-25.4,1.1
			c-2.3,0-4.6-1.7-7.5-2.9c-3.3,6-10.3,3.6-15.9,5.1c-10.3,2.8-20.7,5.2-30.9,8.3c-7.7,2.4-15.4,5.2-22.8,8.6
			c-8.3,3.8-16.4,8.2-24.3,12.7c-6.9,3.9-13.8,8.1-20.3,12.7c-3.4,2.4-6,5.9-9.3,8.6c-1.9,1.6-4.4,2.5-6,3.3c-2.2,2.5-4,4.6-5.9,6.7
			c-3.3,3.6-6.9,7.1-10.1,10.9c-5.2,6-10.1,12.2-15.2,18.4c-1.3,1.6-2,4.1-4.5,0.6C116.1,258.5,112.1,260,109.7,260.4L109.7,260.4z"
			/>
		<path d="M395.8,182.6c7.5-7.9,14.4-1.9,21.2,1.5c6.5,3.2,13.1,6.5,19,10.6c8.8,6,17.5,12.5,25.7,19.3c7.2,6,14.3,12.4,20.5,19.4
			c9.3,10.5,19.1,20.7,25.7,33.3c2.9,5.5,7.2,10.3,10.2,15.7c3.3,5.9,5.9,12.2,8.6,18.5c2.5,5.7,5,11.4,6.8,17.4
			c3.2,10.9,6.2,21.9,8.7,33c1.8,8.1,3.2,16.5,3.7,24.8c0.7,11.2,0.6,22.6,0.5,33.8c-0.1,5.8-1.1,11.5-1.6,17
			c-2.7,0.3-5.1,0.5-7.7,0.7c0.7-6.9,1.4-13.8,2.2-20.6c0.1-0.8,1.5-1.3,1.7-2.1c0.5-1.6,1.3-3.9,0.6-5c-3.8-5.5-2.6-11.8-3.3-17.8
			c-1.2-9.9-1.5-20-3.5-29.8c-2.3-11.4-5.4-22.7-9.1-33.7c-2.9-8.5-7-16.6-10.9-24.7c-3.3-6.9-7-13.7-10.8-20.4
			c-1.3-2.4-3.9-4.1-5-6.5c-3-6.7-7.1-12.4-12.8-17.1c-2.1-1.8-2.5-5.6-4.5-7.8c-2-2.3-4.9-3.7-7.2-5.7c-4.3-3.8-8.3-7.9-12.8-11.6
			c-7.4-6.2-14.9-12.4-22.7-18.1c-7.4-5.3-15-10.4-22.9-14.8C409.7,188.2,402.6,185.7,395.8,182.6z"/>
		<path d="M109.7,260.4c-1.1,4.9,3.7,4.4,5.1,5.8c-6.1,11.6-12.3,22.9-18.1,34.4c-3.6,7.1-7,14.2-9.6,21.7
			c-2.6,7.4-4.1,15.2-6.1,22.8c-0.7,2.8-1.5,5.2-5.1,6c-4,0.9-5.1,8.9-1.5,13c2.7,3.1,2.7,5.5,1.9,9.5c-1.4,7.3-1.1,15-1,22.5
			c0.1,8.5,0.4,17.1,1.2,25.6c0.6,6.6,2.2,13.1,3.3,19.6c0.3,1.8,0.7,3.6,1.1,5.4c-3-1.2-5.5-2.1-8.7-3.4
			c-4.4-16.5-4.8-34.6-4.7-52.6c0.1-9,0.6-18.2,2.1-27.1c1.5-9.4,4.2-18.6,6.6-27.9c1.9-7.1,3.8-14.1,6.2-21
			c5.8-16,12.6-31.4,22.1-45.6C106.4,266.4,108,263.3,109.7,260.4C109.7,260.4,109.7,260.4,109.7,260.4z"/>
	</g>
</g>
</svg>
